<svg width="100" height="34" viewBox="0 0 100 34" fill="none" xmlns="http://www.w3.org/2000/svg">
  <path d="M0 16.784C0 10.3025 0 7.06168 1.46464 4.68426C2.27143 3.37468 3.37349 2.27223 4.68261 1.46516C7.0592 0 10.2988 0 16.7781 0C23.2574 0 26.4971 0 28.8736 1.46516C30.1828 2.27223 31.2848 3.37468 32.0916 4.68426C33.5563 7.06168 33.5563 10.3025 33.5563 16.784C33.5563 23.2656 33.5563 26.5064 32.0916 28.8838C31.2848 30.1934 30.1828 31.2958 28.8736 32.1029C26.4971 33.5681 23.2574 33.5681 16.7781 33.5681C10.2988 33.5681 7.0592 33.5681 4.68261 32.1029C3.37349 31.2958 2.27143 30.1934 1.46464 28.8838C0 26.5064 0 23.2656 0 16.784Z" fill="url(#paint0_linear_15167_7216)"/>
  <path d="M18.7858 14.5506C18.656 15.0036 18.9178 15.4761 19.3706 15.606L24.1915 16.9888C24.8465 17.1767 25.0277 18.0192 24.5078 18.4599L14.6855 26.7866C14.0419 27.3322 13.0818 26.7117 13.3143 25.9005L15.0468 19.8565C15.1766 19.4035 14.9148 18.931 14.462 18.8012L9.64108 17.4183C8.98607 17.2304 8.80492 16.3879 9.32476 15.9472L19.1471 7.62052C19.7907 7.07492 20.7508 7.69537 20.5183 8.50659L18.7858 14.5506Z" fill="url(#paint1_linear_15167_7216)" fill-opacity="0.9"/>
  <path d="M97.834 24.7951C97.2375 24.7951 96.723 24.5937 96.2904 24.1909C95.8729 23.7732 95.6641 23.2436 95.6641 22.6021C95.6641 21.9606 95.8729 21.4459 96.2904 21.058C96.723 20.6553 97.2375 20.4539 97.834 20.4539C98.4455 20.4539 98.96 20.6553 99.3776 21.058C99.7952 21.4459 100.004 21.9606 100.004 22.6021C100.004 23.2436 99.7952 23.7732 99.3776 24.1909C98.96 24.5937 98.4455 24.7951 97.834 24.7951Z" fill="#FFD60A"/>
  <path d="M91.4861 24.7944C90.0693 24.7944 88.9657 24.4363 88.1752 23.7203C87.3848 22.9893 86.9896 21.9077 86.9896 20.4756V9.91345H90.4794V20.4308C90.4794 20.938 90.6137 21.3334 90.8821 21.6168C91.1506 21.8853 91.516 22.0196 91.9783 22.0196C92.5301 22.0196 92.9999 21.8704 93.3877 21.572L94.3272 24.0336C93.9693 24.2872 93.5368 24.4811 93.0297 24.6154C92.5376 24.7347 92.023 24.7944 91.4861 24.7944ZM85.1328 15.5302V12.8449H93.4771V15.5302H85.1328Z" fill="white"/>
  <path d="M77.6452 24.7946C76.3626 24.7946 75.2217 24.5261 74.2225 23.989C73.2382 23.452 72.4552 22.721 71.8735 21.7961C71.3068 20.8562 71.0234 19.7896 71.0234 18.5961C71.0234 17.3877 71.3068 16.3211 71.8735 15.3961C72.4552 14.4563 73.2382 13.7253 74.2225 13.2032C75.2217 12.6661 76.3626 12.3976 77.6452 12.3976C78.9129 12.3976 80.0463 12.6661 81.0456 13.2032C82.0448 13.7253 82.8278 14.4488 83.3945 15.3738C83.9612 16.2987 84.2446 17.3728 84.2446 18.5961C84.2446 19.7896 83.9612 20.8562 83.3945 21.7961C82.8278 22.721 82.0448 23.452 81.0456 23.989C80.0463 24.5261 78.9129 24.7946 77.6452 24.7946ZM77.6452 21.9303C78.2268 21.9303 78.7488 21.7961 79.2112 21.5275C79.6735 21.259 80.0389 20.8786 80.3073 20.3863C80.5758 19.8791 80.71 19.2823 80.71 18.5961C80.71 17.8949 80.5758 17.2982 80.3073 16.8059C80.0389 16.3136 79.6735 15.9332 79.2112 15.6647C78.7488 15.3961 78.2268 15.2619 77.6452 15.2619C77.0636 15.2619 76.5416 15.3961 76.0792 15.6647C75.6169 15.9332 75.2441 16.3136 74.9607 16.8059C74.6923 17.2982 74.558 17.8949 74.558 18.5961C74.558 19.2823 74.6923 19.8791 74.9607 20.3863C75.2441 20.8786 75.6169 21.259 76.0792 21.5275C76.5416 21.7961 77.0636 21.9303 77.6452 21.9303Z" fill="white"/>
  <path d="M63.6746 12.3976C64.6291 12.3976 65.4792 12.5915 66.2249 12.9794C66.9855 13.3523 67.5821 13.9342 68.0146 14.7248C68.4471 15.5006 68.6633 16.5001 68.6633 17.7234V24.6156H65.1735V18.2604C65.1735 17.2908 64.9572 16.5747 64.5247 16.1122C64.1071 15.6498 63.5106 15.4185 62.7351 15.4185C62.1832 15.4185 61.6836 15.5379 61.2362 15.7766C60.8037 16.0003 60.4607 16.3509 60.2072 16.8283C59.9685 17.3057 59.8492 17.9173 59.8492 18.6632V24.6156H56.3594V12.5766H59.6926V15.9108L59.0662 14.9038C59.4987 14.0983 60.1177 13.4792 60.923 13.0465C61.7284 12.6139 62.6456 12.3976 63.6746 12.3976Z" fill="white"/>
  <path d="M48.2194 24.7945C46.8473 24.7945 45.6393 24.526 44.5953 23.9889C43.5663 23.4519 42.7684 22.7209 42.2017 21.7959C41.6349 20.8561 41.3516 19.7894 41.3516 18.596C41.3516 17.3876 41.6275 16.321 42.1793 15.396C42.746 14.4562 43.5141 13.7252 44.4835 13.203C45.4529 12.666 46.5491 12.3975 47.772 12.3975C48.9502 12.3975 50.0091 12.6511 50.9487 13.1583C51.9031 13.6506 52.6563 14.3667 53.2081 15.3065C53.7599 16.2314 54.0358 17.3429 54.0358 18.6407C54.0358 18.775 54.0284 18.9316 54.0135 19.1107C53.9985 19.2748 53.9836 19.4314 53.9687 19.5806H44.1927V17.5442H52.1343L50.7921 18.1484C50.7921 17.5219 50.6653 16.9774 50.4117 16.5149C50.1582 16.0524 49.8077 15.6944 49.3603 15.4408C48.9129 15.1722 48.3909 15.038 47.7944 15.038C47.1978 15.038 46.6684 15.1722 46.206 15.4408C45.7586 15.6944 45.4081 16.0599 45.1546 16.5373C44.9011 16.9997 44.7743 17.5517 44.7743 18.1932V18.7302C44.7743 19.3866 44.916 19.9685 45.1993 20.4757C45.4976 20.968 45.9078 21.3484 46.4297 21.6169C46.9666 21.8705 47.593 21.9973 48.3089 21.9973C48.9502 21.9973 49.5095 21.9004 49.9867 21.7064C50.4789 21.5125 50.9263 21.2216 51.329 20.8337L53.1857 22.8477C52.6339 23.4742 51.9404 23.9591 51.1052 24.3022C50.2701 24.6304 49.3081 24.7945 48.2194 24.7945Z" fill="white"/>
  <defs>
    <linearGradient id="paint0_linear_15167_7216" x1="9.10979" y1="1.07295" x2="16.9282" y2="37.0974" gradientUnits="userSpaceOnUse">
      <stop stop-color="#FDEA98"/>
      <stop offset="0.295536" stop-color="#FFD60A"/>
      <stop offset="1" stop-color="#FA9510"/>
    </linearGradient>
    <linearGradient id="paint1_linear_15167_7216" x1="27.2158" y1="9.53855" x2="10.5272" y2="6.4107" gradientUnits="userSpaceOnUse">
      <stop stop-color="#0D1019"/>
      <stop offset="1" stop-color="#34383C"/>
    </linearGradient>
  </defs>
</svg>
